<mxfile host="app.diagrams.net" modified="2020-03-15T08:48:11.987Z" agent="Mozilla/5.0 (X11; Linux x86_64) AppleWebKit/537.36 (KHTML, like Gecko) Chrome/74.0.3729.169 Safari/537.36" etag="45HBVxmArA436Pf7twqM" version="12.8.5" type="github">
  <diagram name="Page-1" id="03018318-947c-dd8e-b7a3-06fadd420f32">
    <mxGraphModel dx="2170" dy="1098" grid="1" gridSize="10" guides="1" tooltips="1" connect="1" arrows="1" fold="1" page="1" pageScale="1" pageWidth="1100" pageHeight="850" background="#ffffff" math="0" shadow="0">
      <root>
        <mxCell id="0" />
        <mxCell id="1" parent="0" />
        <mxCell id="677b7b8949515195-1" value="" style="whiteSpace=wrap;html=1;rounded=0;shadow=0;labelBackgroundColor=none;strokeColor=#000000;strokeWidth=1;fillColor=none;fontFamily=Verdana;fontSize=12;fontColor=#000000;align=center;comic=0;" parent="1" vertex="1">
          <mxGeometry x="170" y="110" width="1270" height="610" as="geometry" />
        </mxCell>
        <mxCell id="677b7b8949515195-10" value="" style="whiteSpace=wrap;html=1;rounded=0;shadow=0;labelBackgroundColor=none;strokeWidth=1;fillColor=none;fontFamily=Verdana;fontSize=12;align=center;comic=0;" parent="1" vertex="1">
          <mxGeometry x="170" y="110" width="1270" height="90" as="geometry" />
        </mxCell>
        <mxCell id="677b7b8949515195-11" value="SISTEM INFORMASI MANAJEMEN LAPORAN PT IKI (GO CHIKEN)" style="text;html=1;points=[];align=left;verticalAlign=top;spacingTop=-4;fontSize=14;fontFamily=Verdana" parent="1" vertex="1">
          <mxGeometry x="770" y="295" width="420" height="20" as="geometry" />
        </mxCell>
        <mxCell id="677b7b8949515195-16" value="" style="verticalLabelPosition=bottom;shadow=0;dashed=0;align=center;html=1;verticalAlign=top;strokeWidth=1;shape=mxgraph.mockup.graphics.simpleIcon;strokeColor=#000000;rounded=0;labelBackgroundColor=none;fontFamily=Verdana;fontSize=14;fontColor=#000000;comic=1;" parent="1" vertex="1">
          <mxGeometry x="289.5" y="295" width="280" height="260" as="geometry" />
        </mxCell>
        <mxCell id="8uS140QnxA3pAm58jcOF-6" value="login" style="rounded=0;html=1;shadow=0;dashed=0;whiteSpace=wrap;fontSize=10;fillColor=#666666;align=center;strokeColor=#4D4D4D;fontColor=#ffffff;comic=0;" parent="1" vertex="1">
          <mxGeometry x="989.5" y="550" width="160.5" height="36.88" as="geometry" />
        </mxCell>
        <mxCell id="BGKVe9USKqQLv1Jw2hvF-1" value="" style="group" vertex="1" connectable="0" parent="1">
          <mxGeometry x="790" y="357" width="360" height="68" as="geometry" />
        </mxCell>
        <mxCell id="8uS140QnxA3pAm58jcOF-1" value="Nik" style="fillColor=none;strokeColor=none;html=1;fontSize=11;fontStyle=0;align=left;fontColor=#596780;fontStyle=1;fontSize=11;comic=0;" parent="BGKVe9USKqQLv1Jw2hvF-1" vertex="1">
          <mxGeometry width="297.9310344827586" height="23.448275862068964" as="geometry" />
        </mxCell>
        <mxCell id="8uS140QnxA3pAm58jcOF-2" value="" style="rounded=1;arcSize=9;fillColor=#F7F8F9;align=left;spacingLeft=5;strokeColor=#000000;html=1;strokeWidth=2;fontColor=#596780;fontSize=12;comic=0;" parent="BGKVe9USKqQLv1Jw2hvF-1" vertex="1">
          <mxGeometry y="29.310344827586203" width="360" height="38.68965517241379" as="geometry" />
        </mxCell>
        <mxCell id="BGKVe9USKqQLv1Jw2hvF-2" value="" style="group" vertex="1" connectable="0" parent="1">
          <mxGeometry x="790" y="450" width="360" height="68" as="geometry" />
        </mxCell>
        <mxCell id="8uS140QnxA3pAm58jcOF-3" value="Password" style="fillColor=none;strokeColor=none;html=1;fontSize=11;fontStyle=0;align=left;fontColor=#596780;fontStyle=1;fontSize=11;comic=0;" parent="BGKVe9USKqQLv1Jw2hvF-2" vertex="1">
          <mxGeometry width="297.93103448275855" height="23.448275862068964" as="geometry" />
        </mxCell>
        <mxCell id="8uS140QnxA3pAm58jcOF-4" value="" style="rounded=1;arcSize=9;fillColor=#F7F8F9;align=left;spacingLeft=5;strokeColor=#000000;html=1;strokeWidth=2;fontColor=#596780;fontSize=12;comic=0;" parent="BGKVe9USKqQLv1Jw2hvF-2" vertex="1">
          <mxGeometry y="29.310344827586203" width="359.99999999999994" height="38.68965517241379" as="geometry" />
        </mxCell>
        <mxCell id="BGKVe9USKqQLv1Jw2hvF-3" value="x" style="rounded=0;html=1;shadow=0;dashed=0;whiteSpace=wrap;fontSize=10;fillColor=#666666;align=center;strokeColor=#4D4D4D;fontColor=#ffffff;comic=0;" vertex="1" parent="1">
          <mxGeometry x="1390" y="213.12" width="35.5" height="36.88" as="geometry" />
        </mxCell>
      </root>
    </mxGraphModel>
  </diagram>
</mxfile>
